<?xml version="1.0" encoding="utf-8"?>
<!-- Generator: Adobe Illustrator 24.0.1, SVG Export Plug-In . SVG Version: 6.00 Build 0)  -->
<svg version="1.1" id="图层_1" xmlns="http://www.w3.org/2000/svg" xmlns:xlink="http://www.w3.org/1999/xlink" x="0px" y="0px"
	 viewBox="0 0 1080 1080" style="enable-background:new 0 0 1080 1080;" xml:space="preserve">
<style type="text/css">
	.st0{fill:#FFFFFF;stroke:#3A3A45;stroke-width:25;stroke-miterlimit:10;}
	.st1{fill:#3A3A45;}
	.st2{fill:none;}
</style>
<path class="st0" d="M687.9,775.1L377,954.5c-24.2,14-55.2,5.7-69.2-18.5l-286-495.4c-14-24.2-5.7-55.2,18.5-69.2l310.8-179.5
	c24.2-14,55.2-5.7,69.2,18.5l286,495.4C720.4,730.1,712.1,761.1,687.9,775.1z"/>
<path class="st0" d="M816.7,894.5l-438.5,61.6c-32.8,4.6-63.2-18.3-67.8-51.1l-97.9-696.5c-4.6-32.8,18.3-63.2,51.1-67.8l438.5-61.6
	c32.8-4.6,63.2,18.3,67.8,51.1l97.9,696.5C872.4,859.6,849.6,889.9,816.7,894.5z"/>
<g>
	<path class="st1" d="M755.7,843.5l-343.8,48.3c-22.2,3.1-42.8-12.4-45.9-34.6l-85.8-610.5c-3.1-22.2,12.4-42.8,34.6-45.9
		l343.8-48.3c22.2-3.1,42.8,12.4,45.9,34.6l85.8,610.5C793.4,819.8,777.9,840.3,755.7,843.5z"/>
</g>
<path class="st0" d="M858.2,1037.2l-493.7-87.1c-32.6-5.8-54.4-36.9-48.7-69.5l137-777c5.8-32.6,36.9-54.4,69.5-48.7l493.7,87.1
	c32.6,5.8,54.4,36.9,48.7,69.5l-137,777C922,1021.1,890.8,1042.9,858.2,1037.2z"/>
<g>
	
		<rect x="327.7" y="286.6" transform="matrix(0.1674 -0.9859 0.9859 0.1674 41.388 1265.4131)" class="st2" width="884.4" height="643.2"/>
	<path class="st1" d="M641.4,800c5.5,0.9,12.8,0.6,16.7,1.2c3.9,0.7,6.5,4.3,5.8,8.2c-0.8,4.7-4.3,6.5-12.9,5
		c-6.3-1.1-45.9-9.4-101.5-18.8c-47.7-8.1-94.2-14.4-99.6-15.3c-9.4-1.6-12.1-4.5-11.3-9.2c0.7-3.9,4.3-6.5,8.2-5.8
		c3.9,0.7,10.7,3.4,16.2,4.4c34.4,5.8,55.6-19.5,59.4-41.4L591,323.7c3.7-21.9-7.9-52.9-42.4-58.7c-5.5-0.9-12.8-0.6-16.7-1.2
		c-3.9-0.7-6.5-4.3-5.8-8.2c0.8-4.7,4.3-6.5,13.7-4.9c4.7,0.8,69.4,13.4,117.9,21.6l11,1.9c6.3,1.1,9,3.9,7.9,10.2l-77.6,457
		C595.3,763.2,606.9,794.1,641.4,800z M681.9,566.2C764,580.1,812,544,826.7,457.9c13.2-77.5-14.3-138.5-91.8-151.6l-19.6-3.3
		c-6.3-1.1-8.6-6.3-7.5-12.5c1.1-6.3,4.2-10.6,11.3-9.4c14.1,2.4,28.3,4,42.4,6.4c83.7,14.2,170.5,81.3,153.3,183
		C894.9,587,779.9,605.3,685.2,589.3c-19.6-3.3-27.1-6.2-25.4-16.4c1.5-8.6,3.3-9.9,11.1-8.6L681.9,566.2z"/>
</g>
<g>
</g>
<g>
</g>
<g>
</g>
<g>
</g>
<g>
</g>
<g>
</g>
<g>
</g>
<g>
</g>
<g>
</g>
<g>
</g>
<g>
</g>
<g>
</g>
<g>
</g>
<g>
</g>
<g>
</g>
</svg>
