<?xml version="1.0" encoding="utf-8"?>
<!-- Generator: Adobe Illustrator 24.0.1, SVG Export Plug-In . SVG Version: 6.00 Build 0)  -->
<svg version="1.1" id="_x31_0" xmlns="http://www.w3.org/2000/svg" xmlns:xlink="http://www.w3.org/1999/xlink" x="0px" y="0px"
	 viewBox="0 0 512 512" style="enable-background:new 0 0 512 512;" xml:space="preserve">
<style type="text/css">
	.st0{fill:#3A3A45;}
</style>
<g>
	<path class="st0" d="M142.5,294.5l64,0.1c8,0,14.5,6.7,14.5,14.9l-0.1,59.5c0,8.2,6.5,14.9,14.5,14.9l40.7,0.1
		c8,0,14.6-6.6,14.6-14.9l0.1-59.5c0-8.2,6.5-14.9,14.6-14.9l64,0.1c8,0,14.6-6.6,14.6-14.9l0.1-41.7c0-8.2-6.5-14.9-14.5-14.9
		l-64-0.1c-8,0-14.5-6.7-14.5-14.9l0.1-65.5c0-8.2-6.5-14.9-14.5-14.9l-40.7-0.1c-8,0-14.6,6.6-14.6,14.9l-0.1,65.5
		c0,8.2-6.5,14.9-14.6,14.9l-64-0.1c-8,0-14.6,6.6-14.6,14.9l-0.1,41.7C128,287.9,134.5,294.5,142.5,294.5z"/>
	<path class="st0" d="M256.4,0C115-0.2,0.2,114.2,0,255.6C-0.2,397,114.2,511.8,255.6,512C397,512.2,511.8,397.8,512,256.4
		C512.2,115,397.8,0.2,256.4,0z M448,256.3c-0.2,105.9-86.4,191.9-192.3,191.7C149.9,447.8,63.8,361.6,64,255.7
		C64.2,149.9,150.4,63.8,256.3,64C362.1,64.2,448.2,150.4,448,256.3z"/>
</g>
</svg>
