<?xml version="1.0" encoding="utf-8"?>
<!-- Generator: Adobe Illustrator 24.0.1, SVG Export Plug-In . SVG Version: 6.00 Build 0)  -->
<svg version="1.1" id="_x31_0" xmlns="http://www.w3.org/2000/svg" xmlns:xlink="http://www.w3.org/1999/xlink" x="0px" y="0px"
	 viewBox="0 0 512 512" style="enable-background:new 0 0 512 512;" xml:space="preserve">
<style type="text/css">
	.st0{fill:#3A3A45;}
</style>
<g>
	<path class="st0" d="M256.4,0C115-0.2,0.2,114.2,0,255.6c0,25.5,3.7,50,10.6,73.3c0.2,0.5,0.3,1,0.4,1.5c0.9,3,1.9,5.9,2.9,8.8
		c0.4,1.1,0.7,2.2,1.1,3.3c0.9,2.5,1.9,5,2.9,7.5c0.6,1.4,1.1,2.9,1.7,4.3c1,2.3,2,4.5,3,6.8c0.7,1.6,1.4,3.1,2.1,4.6
		c1.1,2.3,2.2,4.5,3.4,6.7c0.7,1.4,1.4,2.9,2.2,4.3c1.4,2.6,2.9,5.1,4.3,7.7c0.6,1,1.1,2,1.7,2.9c2,3.3,4.1,6.6,6.2,9.8
		c0.1,0.2,0.2,0.3,0.3,0.5c18.7,28.1,42.9,52.4,71,71.2c0.2,0.1,0.4,0.2,0.6,0.4c3.2,2.1,6.4,4.2,9.7,6.1c1,0.6,2.1,1.2,3.1,1.8
		c2.5,1.5,5,2.9,7.5,4.3c1.5,0.8,2.9,1.5,4.4,2.3c2.2,1.1,4.4,2.3,6.6,3.3c1.6,0.8,3.2,1.4,4.8,2.2c2.2,1,4.4,2,6.6,3
		c1.5,0.6,2.9,1.2,4.4,1.7c2.4,1,4.9,2,7.4,2.8c1.1,0.4,2.3,0.8,3.4,1.1c2.9,1,5.8,2,8.7,2.9c0.6,0.2,1.1,0.3,1.7,0.5
		c23.2,6.9,47.7,10.7,73.1,10.8C397,512.2,511.8,397.8,512,256.4C512.2,115,397.8,0.2,256.4,0z M255.7,448
		C149.9,447.8,63.8,361.6,64,255.7C64.2,149.9,150.4,63.8,256.3,64c105.9,0.2,191.9,86.4,191.7,192.3
		C447.8,362.1,361.6,448.2,255.7,448z"/>
	<path class="st0" d="M368.1,213.5l-69.3-0.1l-85.3-0.1l-69.3-0.1c-8.8,0-16,7.1-16,16l-0.1,53.3c0,8.8,7.1,16,16,16l69.3,0.1
		l85.3,0.1l69.3,0.1c8.8,0,16-7.1,16-16l0.1-53.3C384,220.7,376.9,213.5,368.1,213.5z"/>
</g>
</svg>
